<svg xmlns="http://www.w3.org/2000/svg" width="240" height="240" viewBox="0 0 240 240" fill="none">
  <defs>
    <linearGradient id="g1" x1="0" y1="0" x2="1" y2="1">
      <stop stop-color="#0EA5E9" stop-opacity="0.12"/>
      <stop offset="1" stop-color="#0F172A" stop-opacity="0.06"/>
    </linearGradient>
    <linearGradient id="g2" x1="0" y1="1" x2="1" y2="0">
      <stop stop-color="#22D3EE" stop-opacity="0.12"/>
      <stop offset="1" stop-color="#1E293B" stop-opacity="0.05"/>
    </linearGradient>
  </defs>
  <rect width="240" height="240" fill="#0B1221"/>
  <g opacity="0.6">
    <path d="M-40 60 C20 30, 80 90, 140 60 C200 30, 260 90, 320 60 L320 80 C260 110, 200 50, 140 80 C80 110, 20 50, -40 80 Z" fill="url(#g1)"/>
    <path d="M-40 140 C20 110, 80 170, 140 140 C200 110, 260 170, 320 140 L320 160 C260 190, 200 130, 140 160 C80 190, 20 130, -40 160 Z" fill="url(#g2)"/>
    <path d="M-40 220 C20 190, 80 250, 140 220 C200 190, 260 250, 320 220 L320 240 C260 270, 200 210, 140 240 C80 270, 20 210, -40 240 Z" fill="url(#g1)"/>
  </g>
  <g stroke="#38BDF8" stroke-opacity="0.15" stroke-width="1">
    <path d="M0 20 Q60 40 120 20 T240 20" />
    <path d="M0 80 Q60 100 120 80 T240 80" />
    <path d="M0 140 Q60 160 120 140 T240 140" />
    <path d="M0 200 Q60 220 120 200 T240 200" />
  </g>
</svg>
